<svg width="500" height="500" viewBox="0 0 500 500" fill="none" xmlns="http://www.w3.org/2000/svg">
<rect width="500" height="500" fill="white"/>
<path d="M187.73 138.455C187.73 150.351 185.475 160.472 180.965 168.817C176.491 177.162 170.383 183.536 162.641 187.94C154.935 192.308 146.271 194.491 136.647 194.491C126.952 194.491 118.252 192.29 110.546 187.886C102.84 183.483 96.75 177.109 92.2756 168.763C87.8011 160.418 85.5639 150.315 85.5639 138.455C85.5639 126.558 87.8011 116.438 92.2756 108.092C96.75 99.7472 102.84 93.3906 110.546 89.0227C118.252 84.6193 126.952 82.4176 136.647 82.4176C146.271 82.4176 154.935 84.6193 162.641 89.0227C170.383 93.3906 176.491 99.7472 180.965 108.092C185.475 116.438 187.73 126.558 187.73 138.455ZM164.346 138.455C164.346 130.749 163.192 124.25 160.884 118.959C158.611 113.668 155.397 109.655 151.242 106.92C147.087 104.186 142.222 102.819 136.647 102.819C131.072 102.819 126.207 104.186 122.052 106.92C117.897 109.655 114.665 113.668 112.357 118.959C110.085 124.25 108.948 130.749 108.948 138.455C108.948 146.161 110.085 152.659 112.357 157.95C114.665 163.241 117.897 167.254 122.052 169.989C126.207 172.723 131.072 174.09 136.647 174.09C142.222 174.09 147.087 172.723 151.242 169.989C155.397 167.254 158.611 163.241 160.884 157.95C163.192 152.659 164.346 146.161 164.346 138.455ZM409.214 138.455C409.214 150.351 406.96 160.472 402.45 168.817C397.975 177.162 391.867 183.536 384.126 187.94C376.42 192.308 367.755 194.491 358.131 194.491C348.437 194.491 339.737 192.29 332.031 187.886C324.325 183.483 318.234 177.109 313.76 168.763C309.286 160.418 307.048 150.315 307.048 138.455C307.048 126.558 309.286 116.438 313.76 108.092C318.234 99.7472 324.325 93.3906 332.031 89.0227C339.737 84.6193 348.437 82.4176 358.131 82.4176C367.755 82.4176 376.42 84.6193 384.126 89.0227C391.867 93.3906 397.975 99.7472 402.45 108.092C406.96 116.438 409.214 126.558 409.214 138.455ZM385.83 138.455C385.83 130.749 384.676 124.25 382.368 118.959C380.095 113.668 376.881 109.655 372.727 106.92C368.572 104.186 363.707 102.819 358.131 102.819C352.556 102.819 347.691 104.186 343.536 106.92C339.381 109.655 336.15 113.668 333.842 118.959C331.569 124.25 330.433 130.749 330.433 138.455C330.433 146.161 331.569 152.659 333.842 157.95C336.15 163.241 339.381 167.254 343.536 169.989C347.691 172.723 352.556 174.09 358.131 174.09C363.707 174.09 368.572 172.723 372.727 169.989C376.881 167.254 380.095 163.241 382.368 157.95C384.676 152.659 385.83 146.161 385.83 138.455Z" fill="black"/>
<path d="M229.497 76.0909H264.724V284.045C264.724 302.606 261.315 318.373 254.497 331.347C247.679 344.32 238.067 354.169 225.662 360.892C213.257 367.616 198.626 370.977 181.77 370.977C165.861 370.977 151.704 368.089 139.298 362.312C126.893 356.441 117.139 348.108 110.037 337.312C102.935 326.517 99.3835 313.686 99.3835 298.818H134.043C134.043 307.057 136.079 314.254 140.151 320.409C144.317 326.47 149.999 331.205 157.196 334.614C164.393 338.023 172.584 339.727 181.77 339.727C191.902 339.727 200.52 337.597 207.622 333.335C214.724 329.074 220.122 322.824 223.815 314.585C227.603 306.252 229.497 296.072 229.497 284.045V76.0909Z" fill="black"/>
<path d="M380.516 252.283C380.09 247.987 378.261 244.648 375.029 242.269C371.798 239.89 367.412 238.7 361.872 238.7C358.108 238.7 354.93 239.233 352.337 240.298C349.745 241.328 347.756 242.766 346.372 244.613C345.022 246.46 344.347 248.555 344.347 250.898C344.276 252.852 344.685 254.556 345.573 256.012C346.496 257.468 347.756 258.729 349.354 259.794C350.953 260.824 352.799 261.729 354.894 262.511C356.989 263.256 359.227 263.896 361.606 264.428L371.407 266.772C376.166 267.837 380.533 269.258 384.511 271.033C388.488 272.809 391.933 274.993 394.845 277.585C397.756 280.178 400.011 283.232 401.609 286.747C403.243 290.263 404.078 294.293 404.113 298.839C404.078 305.515 402.373 311.303 398.999 316.204C395.661 321.069 390.832 324.851 384.511 327.55C378.225 330.213 370.644 331.545 361.766 331.545C352.959 331.545 345.288 330.195 338.754 327.496C332.256 324.798 327.178 320.803 323.52 315.511C319.898 310.185 317.998 303.597 317.82 295.749H340.139C340.388 299.407 341.435 302.461 343.282 304.911C345.164 307.326 347.668 309.155 350.793 310.398C353.953 311.605 357.522 312.209 361.499 312.209C365.406 312.209 368.797 311.641 371.673 310.504C374.585 309.368 376.84 307.788 378.438 305.763C380.036 303.739 380.835 301.413 380.835 298.786C380.835 296.335 380.107 294.276 378.651 292.607C377.231 290.937 375.136 289.517 372.366 288.345C369.631 287.173 366.276 286.108 362.298 285.149L350.42 282.166C341.222 279.929 333.96 276.431 328.634 271.673C323.307 266.914 320.661 260.504 320.697 252.443C320.661 245.838 322.419 240.067 325.97 235.131C329.557 230.195 334.475 226.342 340.725 223.572C346.975 220.803 354.078 219.418 362.032 219.418C370.129 219.418 377.195 220.803 383.232 223.572C389.305 226.342 394.028 230.195 397.401 235.131C400.775 240.067 402.515 245.785 402.622 252.283H380.516Z" fill="black"/>
<path d="M131.9 451.341V395.091H137.973V401.589H138.718C139.18 400.879 139.819 399.974 140.636 398.873C141.471 397.754 142.66 396.76 144.205 395.89C145.767 395.002 147.88 394.558 150.544 394.558C153.988 394.558 157.025 395.419 159.652 397.142C162.28 398.864 164.331 401.305 165.805 404.466C167.278 407.626 168.015 411.355 168.015 415.652C168.015 419.984 167.278 423.74 165.805 426.918C164.331 430.078 162.289 432.529 159.679 434.269C157.069 435.991 154.059 436.852 150.65 436.852C148.022 436.852 145.918 436.417 144.338 435.547C142.758 434.659 141.542 433.656 140.689 432.538C139.837 431.401 139.18 430.46 138.718 429.714H138.186V451.341H131.9ZM138.079 415.545C138.079 418.635 138.532 421.36 139.438 423.722C140.343 426.066 141.666 427.903 143.406 429.235C145.146 430.549 147.277 431.206 149.798 431.206C152.426 431.206 154.619 430.513 156.377 429.129C158.152 427.726 159.484 425.844 160.372 423.482C161.277 421.103 161.73 418.457 161.73 415.545C161.73 412.669 161.286 410.077 160.398 407.768C159.528 405.442 158.205 403.605 156.43 402.255C154.672 400.888 152.461 400.205 149.798 400.205C147.241 400.205 145.093 400.853 143.353 402.149C141.613 403.427 140.299 405.221 139.411 407.529C138.523 409.819 138.079 412.491 138.079 415.545ZM177.603 436V395.091H183.676V401.27H184.102C184.848 399.246 186.197 397.603 188.15 396.343C190.103 395.082 192.305 394.452 194.755 394.452C195.217 394.452 195.794 394.461 196.487 394.478C197.179 394.496 197.703 394.523 198.058 394.558V400.95C197.845 400.897 197.357 400.817 196.593 400.711C195.847 400.586 195.057 400.524 194.223 400.524C192.234 400.524 190.459 400.941 188.896 401.776C187.351 402.593 186.126 403.729 185.221 405.185C184.333 406.623 183.889 408.266 183.889 410.112V436H177.603ZM220.883 436.852C217.19 436.852 213.949 435.973 211.162 434.216C208.392 432.458 206.226 429.999 204.663 426.838C203.118 423.678 202.346 419.984 202.346 415.759C202.346 411.497 203.118 407.777 204.663 404.599C206.226 401.421 208.392 398.953 211.162 397.195C213.949 395.437 217.19 394.558 220.883 394.558C224.576 394.558 227.808 395.437 230.578 397.195C233.365 398.953 235.531 401.421 237.076 404.599C238.639 407.777 239.42 411.497 239.42 415.759C239.42 419.984 238.639 423.678 237.076 426.838C235.531 429.999 233.365 432.458 230.578 434.216C227.808 435.973 224.576 436.852 220.883 436.852ZM220.883 431.206C223.688 431.206 225.997 430.487 227.808 429.049C229.619 427.61 230.959 425.719 231.829 423.376C232.699 421.032 233.134 418.493 233.134 415.759C233.134 413.024 232.699 410.476 231.829 408.115C230.959 405.753 229.619 403.844 227.808 402.388C225.997 400.933 223.688 400.205 220.883 400.205C218.078 400.205 215.769 400.933 213.958 402.388C212.147 403.844 210.807 405.753 209.937 408.115C209.066 410.476 208.631 413.024 208.631 415.759C208.631 418.493 209.066 421.032 209.937 423.376C210.807 425.719 212.147 427.61 213.958 429.049C215.769 430.487 218.078 431.206 220.883 431.206ZM249.015 395.091H255.3V438.983C255.3 441.504 254.865 443.688 253.995 445.535C253.143 447.381 251.847 448.811 250.107 449.823C248.384 450.835 246.209 451.341 243.581 451.341C243.368 451.341 243.155 451.341 242.942 451.341C242.729 451.341 242.516 451.341 242.303 451.341V445.482C242.516 445.482 242.711 445.482 242.889 445.482C243.066 445.482 243.262 445.482 243.475 445.482C245.392 445.482 246.795 444.913 247.683 443.777C248.571 442.658 249.015 441.06 249.015 438.983V395.091ZM252.104 388.273C250.879 388.273 249.822 387.855 248.935 387.021C248.065 386.186 247.63 385.183 247.63 384.011C247.63 382.839 248.065 381.836 248.935 381.002C249.822 380.167 250.879 379.75 252.104 379.75C253.329 379.75 254.377 380.167 255.247 381.002C256.135 381.836 256.578 382.839 256.578 384.011C256.578 385.183 256.135 386.186 255.247 387.021C254.377 387.855 253.329 388.273 252.104 388.273ZM283.964 436.852C280.023 436.852 276.622 435.982 273.764 434.242C270.923 432.484 268.73 430.034 267.185 426.891C265.658 423.731 264.895 420.055 264.895 415.865C264.895 411.675 265.658 407.982 267.185 404.786C268.73 401.572 270.878 399.068 273.631 397.275C276.4 395.464 279.632 394.558 283.325 394.558C285.456 394.558 287.56 394.913 289.637 395.624C291.715 396.334 293.606 397.488 295.31 399.086C297.015 400.666 298.373 402.761 299.385 405.371C300.397 407.982 300.903 411.195 300.903 415.013V417.676H269.369V412.243H294.511C294.511 409.935 294.05 407.875 293.126 406.064C292.221 404.253 290.925 402.824 289.238 401.776C287.569 400.728 285.598 400.205 283.325 400.205C280.822 400.205 278.655 400.826 276.827 402.069C275.016 403.294 273.622 404.892 272.645 406.863C271.669 408.834 271.18 410.947 271.18 413.202V416.824C271.18 419.913 271.713 422.532 272.778 424.681C273.861 426.811 275.362 428.436 277.279 429.555C279.197 430.656 281.425 431.206 283.964 431.206C285.616 431.206 287.107 430.975 288.439 430.513C289.788 430.034 290.951 429.324 291.928 428.383C292.904 427.424 293.659 426.234 294.192 424.814L300.264 426.518C299.625 428.578 298.551 430.389 297.041 431.952C295.532 433.496 293.668 434.704 291.448 435.574C289.229 436.426 286.734 436.852 283.964 436.852ZM327.084 436.852C323.249 436.852 319.946 435.947 317.176 434.136C314.407 432.325 312.276 429.83 310.784 426.652C309.293 423.473 308.547 419.842 308.547 415.759C308.547 411.604 309.311 407.937 310.838 404.759C312.382 401.563 314.531 399.068 317.283 397.275C320.053 395.464 323.284 394.558 326.978 394.558C329.854 394.558 332.446 395.091 334.755 396.156C337.063 397.222 338.954 398.713 340.427 400.631C341.901 402.548 342.816 404.786 343.171 407.342H336.885C336.406 405.478 335.34 403.827 333.689 402.388C332.056 400.933 329.854 400.205 327.084 400.205C324.634 400.205 322.485 400.844 320.639 402.122C318.81 403.383 317.381 405.167 316.351 407.475C315.339 409.766 314.833 412.456 314.833 415.545C314.833 418.706 315.33 421.458 316.324 423.802C317.336 426.146 318.757 427.966 320.585 429.262C322.432 430.558 324.598 431.206 327.084 431.206C328.718 431.206 330.2 430.922 331.532 430.354C332.864 429.786 333.991 428.969 334.914 427.903C335.838 426.838 336.495 425.56 336.885 424.068H343.171C342.816 426.483 341.937 428.658 340.534 430.593C339.149 432.511 337.311 434.038 335.021 435.174C332.748 436.293 330.103 436.852 327.084 436.852ZM370.15 395.091V400.418H348.95V395.091H370.15ZM355.129 385.29H361.415V424.281C361.415 426.057 361.672 427.388 362.187 428.276C362.72 429.146 363.394 429.732 364.211 430.034C365.046 430.318 365.925 430.46 366.848 430.46C367.54 430.46 368.109 430.425 368.552 430.354C368.996 430.265 369.351 430.194 369.618 430.141L370.896 435.787C370.47 435.947 369.875 436.107 369.112 436.266C368.348 436.444 367.381 436.533 366.209 436.533C364.433 436.533 362.693 436.151 360.989 435.387C359.302 434.624 357.899 433.461 356.78 431.898C355.68 430.336 355.129 428.365 355.129 425.986V385.29Z" fill="black"/>
</svg>
